<svg width="64" height="64" viewBox="0 0 64 64" fill="none" xmlns="http://www.w3.org/2000/svg">
<rect x="28" y="46" width="8" height="8" rx="4" fill="#057CD5" fill-opacity="0.31" stroke="#057CD5" stroke-width="2"/>
<rect x="28" y="10" width="8" height="8" rx="4" fill="#057CD5" fill-opacity="0.31" stroke="#057CD5" stroke-width="2"/>
<rect x="17.8757" y="35.5359" width="8" height="8" rx="4" transform="rotate(60 17.8757 35.5359)" fill="#057CD5" fill-opacity="0.31" stroke="#057CD5" stroke-width="2"/>
<rect x="49.0526" y="17.5359" width="8" height="8" rx="4" transform="rotate(60 49.0526 17.5359)" fill="#057CD5" fill-opacity="0.31" stroke="#057CD5" stroke-width="2"/>
<rect x="21.8757" y="21.5359" width="8" height="8" rx="4" transform="rotate(120 21.8757 21.5359)" fill="#057CD5" fill-opacity="0.31" stroke="#057CD5" stroke-width="2"/>
<rect x="53.0526" y="39.5359" width="8" height="8" rx="4" transform="rotate(120 53.0526 39.5359)" fill="#057CD5" fill-opacity="0.31" stroke="#057CD5" stroke-width="2"/>
<path fill-rule="evenodd" clip-rule="evenodd" d="M32.5 20.5C32.5 20.2239 32.2762 20 32 20C31.7239 20 31.5 20.2239 31.5 20.5V22.5134C31.5 22.7851 31.7283 23 32 23C32.2718 23 32.5 22.7851 32.5 22.5134V20.5ZM39.9667 26.8231C39.7313 26.959 39.6593 27.2637 39.7954 27.499C39.9314 27.734 40.2316 27.8248 40.4668 27.6891L42.2093 26.683C42.4485 26.5449 42.5304 26.2391 42.3923 26C42.2543 25.7609 41.9485 25.6789 41.7093 25.817L39.9667 26.8231ZM40.4668 36.3109C40.2316 36.1752 39.9314 36.266 39.7954 36.501C39.6593 36.7363 39.7313 37.041 39.9667 37.1769L41.7093 38.183C41.9485 38.3211 42.2543 38.2391 42.3923 38C42.5304 37.7609 42.4485 37.4551 42.2093 37.317L40.4668 36.3109ZM32.5 41.4866C32.5 41.2149 32.2718 41 32 41C31.7283 41 31.5 41.2149 31.5 41.4866V43.5C31.5 43.7761 31.7239 44 32 44C32.2762 44 32.5 43.7761 32.5 43.5V41.4866ZM24.0333 37.1769C24.2687 37.041 24.3408 36.7363 24.2047 36.501C24.0687 36.266 23.7684 36.1752 23.5333 36.3109L21.7907 37.317C21.5516 37.4551 21.4696 37.7609 21.6077 38C21.7458 38.2391 22.0516 38.3211 22.2907 38.183L24.0333 37.1769ZM23.5333 27.6891C23.7684 27.8248 24.0687 27.734 24.2047 27.499C24.3408 27.2637 24.2687 26.959 24.0333 26.8231L22.2907 25.817C22.0516 25.6789 21.7458 25.7609 21.6077 26C21.4697 26.2391 21.5516 26.5449 21.7907 26.683L23.5333 27.6891Z" fill="#057CD5"/>
<rect x="25" y="25" width="14" height="14" rx="7" fill="#057CD5"/>
</svg>
